<?xml version="1.0" encoding="UTF-8" standalone="no"?>
<!DOCTYPE svg PUBLIC "-//W3C//DTD SVG 1.1//EN"
 "http://www.w3.org/Graphics/SVG/1.1/DTD/svg11.dtd">
<!-- Generated by graphviz version 2.40.1 (20161225.0304)
 -->
<!-- Title: controllers_diagram Pages: 1 -->
<svg width="542pt" height="585pt"
 viewBox="0.00 0.00 542.07 585.00" xmlns="http://www.w3.org/2000/svg" xmlns:xlink="http://www.w3.org/1999/xlink">
<g id="graph0" class="graph" transform="scale(1 1) rotate(0) translate(4 581)">
<title>controllers_diagram</title>
<polygon fill="transparent" stroke="transparent" points="-4,4 -4,-581 538.0654,-581 538.0654,4 -4,4"/>
<!-- _diagram_info -->
<g id="node1" class="node">
<title>_diagram_info</title>
<text text-anchor="start" x="212" y="-75.6" font-family="Times,serif" font-size="13.00" fill="#000000">Controllers diagram</text>
<text text-anchor="start" x="212" y="-62.6" font-family="Times,serif" font-size="13.00" fill="#000000">Date: Jun 23 2018 &#45; 00:43</text>
<text text-anchor="start" x="212" y="-49.6" font-family="Times,serif" font-size="13.00" fill="#000000">Migration version: 0</text>
<text text-anchor="start" x="212" y="-36.6" font-family="Times,serif" font-size="13.00" fill="#000000">Generated by RailRoady 1.5.3</text>
<text text-anchor="start" x="212" y="-23.6" font-family="Times,serif" font-size="13.00" fill="#000000">http://railroady.prestonlee.com</text>
</g>
<!-- ApplicationController -->
<g id="node2" class="node">
<title>ApplicationController</title>
<path fill="none" stroke="#000000" d="M12,-442.5C12,-442.5 127.6416,-442.5 127.6416,-442.5 133.6416,-442.5 139.6416,-448.5 139.6416,-454.5 139.6416,-454.5 139.6416,-522.5 139.6416,-522.5 139.6416,-528.5 133.6416,-534.5 127.6416,-534.5 127.6416,-534.5 12,-534.5 12,-534.5 6,-534.5 0,-528.5 0,-522.5 0,-522.5 0,-454.5 0,-454.5 0,-448.5 6,-442.5 12,-442.5"/>
<text text-anchor="middle" x="69.8208" y="-519.3" font-family="Times,serif" font-size="14.00" fill="#000000">ApplicationController</text>
<polyline fill="none" stroke="#000000" points="0,-512.5 139.6416,-512.5 "/>
<polyline fill="none" stroke="#000000" points="0,-488.5 139.6416,-488.5 "/>
<polyline fill="none" stroke="#000000" points="0,-464.5 139.6416,-464.5 "/>
<text text-anchor="start" x="8" y="-449.3" font-family="Times,serif" font-size="14.00" fill="#000000">_layout</text>
</g>
<!-- TrainsController -->
<g id="node3" class="node">
<title>TrainsController</title>
<path fill="none" stroke="#000000" d="M335,-357.5C335,-357.5 419.8252,-357.5 419.8252,-357.5 425.8252,-357.5 431.8252,-363.5 431.8252,-369.5 431.8252,-369.5 431.8252,-547.5 431.8252,-547.5 431.8252,-553.5 425.8252,-559.5 419.8252,-559.5 419.8252,-559.5 335,-559.5 335,-559.5 329,-559.5 323,-553.5 323,-547.5 323,-547.5 323,-369.5 323,-369.5 323,-363.5 329,-357.5 335,-357.5"/>
<text text-anchor="middle" x="377.4126" y="-544.3" font-family="Times,serif" font-size="14.00" fill="#000000">TrainsController</text>
<polyline fill="none" stroke="#000000" points="323,-537.5 431.8252,-537.5 "/>
<text text-anchor="start" x="331" y="-522.3" font-family="Times,serif" font-size="14.00" fill="#000000">create</text>
<text text-anchor="start" x="331" y="-508.3" font-family="Times,serif" font-size="14.00" fill="#000000">destroy</text>
<text text-anchor="start" x="331" y="-494.3" font-family="Times,serif" font-size="14.00" fill="#000000">edit</text>
<text text-anchor="start" x="331" y="-480.3" font-family="Times,serif" font-size="14.00" fill="#000000">index</text>
<text text-anchor="start" x="331" y="-466.3" font-family="Times,serif" font-size="14.00" fill="#000000">new</text>
<text text-anchor="start" x="331" y="-452.3" font-family="Times,serif" font-size="14.00" fill="#000000">show</text>
<text text-anchor="start" x="331" y="-438.3" font-family="Times,serif" font-size="14.00" fill="#000000">update</text>
<polyline fill="none" stroke="#000000" points="323,-431.5 431.8252,-431.5 "/>
<polyline fill="none" stroke="#000000" points="323,-407.5 431.8252,-407.5 "/>
<text text-anchor="start" x="331" y="-392.3" font-family="Times,serif" font-size="14.00" fill="#000000">_layout</text>
<text text-anchor="start" x="331" y="-378.3" font-family="Times,serif" font-size="14.00" fill="#000000">set_train</text>
<text text-anchor="start" x="331" y="-364.3" font-family="Times,serif" font-size="14.00" fill="#000000">train_params</text>
</g>
<!-- WelcomeController -->
<g id="node4" class="node">
<title>WelcomeController</title>
<path fill="none" stroke="#000000" d="M420,-.5C420,-.5 522.0654,-.5 522.0654,-.5 528.0654,-.5 534.0654,-6.5 534.0654,-12.5 534.0654,-12.5 534.0654,-78.5 534.0654,-78.5 534.0654,-84.5 528.0654,-90.5 522.0654,-90.5 522.0654,-90.5 420,-90.5 420,-90.5 414,-90.5 408,-84.5 408,-78.5 408,-78.5 408,-12.5 408,-12.5 408,-6.5 414,-.5 420,-.5"/>
<text text-anchor="middle" x="471.0327" y="-75.3" font-family="Times,serif" font-size="14.00" fill="#000000">WelcomeController</text>
<polyline fill="none" stroke="#000000" points="408,-68.5 534.0654,-68.5 "/>
<text text-anchor="start" x="416" y="-53.3" font-family="Times,serif" font-size="14.00" fill="#000000">index</text>
<polyline fill="none" stroke="#000000" points="408,-46.5 534.0654,-46.5 "/>
<polyline fill="none" stroke="#000000" points="408,-22.5 534.0654,-22.5 "/>
<text text-anchor="start" x="416" y="-7.3" font-family="Times,serif" font-size="14.00" fill="#000000">_layout</text>
</g>
<!-- RailwayStationsController -->
<g id="node5" class="node">
<title>RailwayStationsController</title>
<path fill="none" stroke="#000000" d="M131,-119.5C131,-119.5 272.3174,-119.5 272.3174,-119.5 278.3174,-119.5 284.3174,-125.5 284.3174,-131.5 284.3174,-131.5 284.3174,-323.5 284.3174,-323.5 284.3174,-329.5 278.3174,-335.5 272.3174,-335.5 272.3174,-335.5 131,-335.5 131,-335.5 125,-335.5 119,-329.5 119,-323.5 119,-323.5 119,-131.5 119,-131.5 119,-125.5 125,-119.5 131,-119.5"/>
<text text-anchor="middle" x="201.6587" y="-320.3" font-family="Times,serif" font-size="14.00" fill="#000000">RailwayStationsController</text>
<polyline fill="none" stroke="#000000" points="119,-313.5 284.3174,-313.5 "/>
<text text-anchor="start" x="127" y="-298.3" font-family="Times,serif" font-size="14.00" fill="#000000">create</text>
<text text-anchor="start" x="127" y="-284.3" font-family="Times,serif" font-size="14.00" fill="#000000">destroy</text>
<text text-anchor="start" x="127" y="-270.3" font-family="Times,serif" font-size="14.00" fill="#000000">edit</text>
<text text-anchor="start" x="127" y="-256.3" font-family="Times,serif" font-size="14.00" fill="#000000">index</text>
<text text-anchor="start" x="127" y="-242.3" font-family="Times,serif" font-size="14.00" fill="#000000">new</text>
<text text-anchor="start" x="127" y="-228.3" font-family="Times,serif" font-size="14.00" fill="#000000">show</text>
<text text-anchor="start" x="127" y="-214.3" font-family="Times,serif" font-size="14.00" fill="#000000">update</text>
<polyline fill="none" stroke="#000000" points="119,-207.5 284.3174,-207.5 "/>
<polyline fill="none" stroke="#000000" points="119,-183.5 284.3174,-183.5 "/>
<text text-anchor="start" x="127" y="-168.3" font-family="Times,serif" font-size="14.00" fill="#000000">_layout</text>
<text text-anchor="start" x="127" y="-154.3" font-family="Times,serif" font-size="14.00" fill="#000000">railway_station_params</text>
<text text-anchor="start" x="127" y="-140.3" font-family="Times,serif" font-size="14.00" fill="#000000">set_railway_station</text>
<text text-anchor="start" x="127" y="-126.3" font-family="Times,serif" font-size="14.00" fill="#000000">set_route</text>
</g>
<!-- CarriagesController -->
<g id="node6" class="node">
<title>CarriagesController</title>
<path fill="none" stroke="#000000" d="M335,-119.5C335,-119.5 438.1865,-119.5 438.1865,-119.5 444.1865,-119.5 450.1865,-125.5 450.1865,-131.5 450.1865,-131.5 450.1865,-309.5 450.1865,-309.5 450.1865,-315.5 444.1865,-321.5 438.1865,-321.5 438.1865,-321.5 335,-321.5 335,-321.5 329,-321.5 323,-315.5 323,-309.5 323,-309.5 323,-131.5 323,-131.5 323,-125.5 329,-119.5 335,-119.5"/>
<text text-anchor="middle" x="386.5933" y="-306.3" font-family="Times,serif" font-size="14.00" fill="#000000">CarriagesController</text>
<polyline fill="none" stroke="#000000" points="323,-299.5 450.1865,-299.5 "/>
<text text-anchor="start" x="331" y="-284.3" font-family="Times,serif" font-size="14.00" fill="#000000">create</text>
<text text-anchor="start" x="331" y="-270.3" font-family="Times,serif" font-size="14.00" fill="#000000">destroy</text>
<text text-anchor="start" x="331" y="-256.3" font-family="Times,serif" font-size="14.00" fill="#000000">edit</text>
<text text-anchor="start" x="331" y="-242.3" font-family="Times,serif" font-size="14.00" fill="#000000">index</text>
<text text-anchor="start" x="331" y="-228.3" font-family="Times,serif" font-size="14.00" fill="#000000">new</text>
<text text-anchor="start" x="331" y="-214.3" font-family="Times,serif" font-size="14.00" fill="#000000">show</text>
<text text-anchor="start" x="331" y="-200.3" font-family="Times,serif" font-size="14.00" fill="#000000">update</text>
<polyline fill="none" stroke="#000000" points="323,-193.5 450.1865,-193.5 "/>
<polyline fill="none" stroke="#000000" points="323,-169.5 450.1865,-169.5 "/>
<text text-anchor="start" x="331" y="-154.3" font-family="Times,serif" font-size="14.00" fill="#000000">_layout</text>
<text text-anchor="start" x="331" y="-140.3" font-family="Times,serif" font-size="14.00" fill="#000000">carriage_params</text>
<text text-anchor="start" x="331" y="-126.3" font-family="Times,serif" font-size="14.00" fill="#000000">set_carriage</text>
</g>
<!-- RoutesController -->
<g id="node7" class="node">
<title>RoutesController</title>
<path fill="none" stroke="#000000" d="M182,-374.5C182,-374.5 270.4346,-374.5 270.4346,-374.5 276.4346,-374.5 282.4346,-380.5 282.4346,-386.5 282.4346,-386.5 282.4346,-564.5 282.4346,-564.5 282.4346,-570.5 276.4346,-576.5 270.4346,-576.5 270.4346,-576.5 182,-576.5 182,-576.5 176,-576.5 170,-570.5 170,-564.5 170,-564.5 170,-386.5 170,-386.5 170,-380.5 176,-374.5 182,-374.5"/>
<text text-anchor="middle" x="226.2173" y="-561.3" font-family="Times,serif" font-size="14.00" fill="#000000">RoutesController</text>
<polyline fill="none" stroke="#000000" points="170,-554.5 282.4346,-554.5 "/>
<text text-anchor="start" x="178" y="-539.3" font-family="Times,serif" font-size="14.00" fill="#000000">create</text>
<text text-anchor="start" x="178" y="-525.3" font-family="Times,serif" font-size="14.00" fill="#000000">destroy</text>
<text text-anchor="start" x="178" y="-511.3" font-family="Times,serif" font-size="14.00" fill="#000000">edit</text>
<text text-anchor="start" x="178" y="-497.3" font-family="Times,serif" font-size="14.00" fill="#000000">index</text>
<text text-anchor="start" x="178" y="-483.3" font-family="Times,serif" font-size="14.00" fill="#000000">new</text>
<text text-anchor="start" x="178" y="-469.3" font-family="Times,serif" font-size="14.00" fill="#000000">show</text>
<text text-anchor="start" x="178" y="-455.3" font-family="Times,serif" font-size="14.00" fill="#000000">update</text>
<polyline fill="none" stroke="#000000" points="170,-448.5 282.4346,-448.5 "/>
<polyline fill="none" stroke="#000000" points="170,-424.5 282.4346,-424.5 "/>
<text text-anchor="start" x="178" y="-409.3" font-family="Times,serif" font-size="14.00" fill="#000000">_layout</text>
<text text-anchor="start" x="178" y="-395.3" font-family="Times,serif" font-size="14.00" fill="#000000">route_params</text>
<text text-anchor="start" x="178" y="-381.3" font-family="Times,serif" font-size="14.00" fill="#000000">set_route</text>
</g>
</g>
</svg>
