<?xml version="1.0" encoding="UTF-8" standalone="no"?>
<!DOCTYPE svg PUBLIC "-//W3C//DTD SVG 1.1//EN"
 "http://www.w3.org/Graphics/SVG/1.1/DTD/svg11.dtd">
<!-- Generated by graphviz version 2.40.1 (20161225.0304)
 -->
<!-- Title: models_diagram Pages: 1 -->
<svg width="437pt" height="297pt"
 viewBox="0.00 0.00 437.12 297.00" xmlns="http://www.w3.org/2000/svg" xmlns:xlink="http://www.w3.org/1999/xlink">
<g id="graph0" class="graph" transform="scale(1 1) rotate(0) translate(4 293)">
<title>models_diagram</title>
<polygon fill="transparent" stroke="transparent" points="-4,4 -4,-293 433.116,-293 433.116,4 -4,4"/>
<!-- _diagram_info -->
<g id="node1" class="node">
<title>_diagram_info</title>
<text text-anchor="start" x="8" y="-274.6" font-family="Times,serif" font-size="13.00" fill="#000000">Models diagram</text>
<text text-anchor="start" x="8" y="-261.6" font-family="Times,serif" font-size="13.00" fill="#000000">Date: Jun 23 2018 &#45; 00:43</text>
<text text-anchor="start" x="8" y="-248.6" font-family="Times,serif" font-size="13.00" fill="#000000">Migration version: 0</text>
<text text-anchor="start" x="8" y="-235.6" font-family="Times,serif" font-size="13.00" fill="#000000">Generated by RailRoady 1.5.3</text>
<text text-anchor="start" x="8" y="-222.6" font-family="Times,serif" font-size="13.00" fill="#000000">http://railroady.prestonlee.com</text>
</g>
<!-- Carriage -->
<g id="node2" class="node">
<title>Carriage</title>
<ellipse fill="none" stroke="#000000" cx="152.7202" cy="-18" rx="40.5989" ry="18"/>
<text text-anchor="middle" x="152.7202" y="-13.8" font-family="Times,serif" font-size="14.00" fill="#000000">Carriage</text>
</g>
<!-- Train -->
<g id="node3" class="node">
<title>Train</title>
<ellipse fill="none" stroke="#000000" cx="143.7202" cy="-90" rx="28.9021" ry="18"/>
<text text-anchor="middle" x="143.7202" y="-85.8" font-family="Times,serif" font-size="14.00" fill="#000000">Train</text>
</g>
<!-- Train&#45;&gt;Carriage -->
<g id="edge2" class="edge">
<title>Train&#45;&gt;Carriage</title>
<path fill="none" stroke="#c8d34c" d="M146.9934,-63.8144C147.7033,-58.1355 148.4572,-52.1039 149.177,-46.3461"/>
<ellipse fill="none" stroke="#c8d34c" cx="146.4875" cy="-67.8622" rx="4" ry="4"/>
<polygon fill="#c8d34c" stroke="#c8d34c" points="149.1781,-46.336 154.8838,-36.9715 149.7983,-41.3747 150.4186,-36.4133 150.4186,-36.4133 150.4186,-36.4133 149.7983,-41.3747 145.9533,-35.8551 149.1781,-46.336 149.1781,-46.336"/>
</g>
<!-- Ticket -->
<g id="node8" class="node">
<title>Ticket</title>
<ellipse fill="none" stroke="#000000" cx="61.7202" cy="-18" rx="32.2768" ry="18"/>
<text text-anchor="middle" x="61.7202" y="-13.8" font-family="Times,serif" font-size="14.00" fill="#000000">Ticket</text>
</g>
<!-- Train&#45;&gt;Ticket -->
<g id="edge1" class="edge">
<title>Train&#45;&gt;Ticket</title>
<path fill="none" stroke="#805250" d="M120.5664,-69.6698C110.1164,-60.4942 97.7447,-49.6312 87.0482,-40.2392"/>
<ellipse fill="none" stroke="#805250" cx="123.724" cy="-72.4423" rx="4" ry="4"/>
<polygon fill="#805250" stroke="#805250" points="86.7691,-39.9942 82.2238,-30.0146 83.0119,-36.6951 79.2547,-33.3961 79.2547,-33.3961 79.2547,-33.3961 83.0119,-36.6951 76.2856,-36.7776 86.7691,-39.9942 86.7691,-39.9942"/>
</g>
<!-- RailwayStationsRoute -->
<g id="node4" class="node">
<title>RailwayStationsRoute</title>
<ellipse fill="none" stroke="#000000" cx="304.7202" cy="-90" rx="89.4033" ry="18"/>
<text text-anchor="middle" x="304.7202" y="-85.8" font-family="Times,serif" font-size="14.00" fill="#000000">RailwayStationsRoute</text>
</g>
<!-- Route -->
<g id="node5" class="node">
<title>Route</title>
<ellipse fill="none" stroke="#000000" cx="224.7202" cy="-252.5" rx="31.4636" ry="18"/>
<text text-anchor="middle" x="224.7202" y="-248.3" font-family="Times,serif" font-size="14.00" fill="#000000">Route</text>
</g>
<!-- Route&#45;&gt;Train -->
<g id="edge5" class="edge">
<title>Route&#45;&gt;Train</title>
<path fill="none" stroke="#98f048" d="M201.6883,-231.478C181.0999,-212.4425 153.7186,-186.425 150.7202,-180 141.745,-160.7676 140.3066,-136.6978 140.9427,-118.2904"/>
<ellipse fill="none" stroke="#98f048" cx="204.8834" cy="-234.4217" rx="4" ry="4"/>
<polygon fill="#98f048" stroke="#98f048" points="140.9495,-118.1701 146.0085,-108.4409 141.2326,-113.1781 141.5157,-108.1861 141.5157,-108.1861 141.5157,-108.1861 141.2326,-113.1781 137.0229,-107.9313 140.9495,-118.1701 140.9495,-118.1701"/>
</g>
<!-- Route&#45;&gt;RailwayStationsRoute -->
<g id="edge3" class="edge">
<title>Route&#45;&gt;RailwayStationsRoute</title>
<path fill="none" stroke="#4bb55c" d="M247.7678,-231.4853C268.3679,-212.4551 295.7574,-186.4415 298.7202,-180 307.5819,-160.7337 308.7471,-136.6659 307.8787,-118.2679"/>
<ellipse fill="none" stroke="#4bb55c" cx="244.5703" cy="-234.4286" rx="4" ry="4"/>
<polygon fill="#4bb55c" stroke="#4bb55c" points="307.8703,-118.1455 311.6644,-107.857 307.5228,-113.1576 307.1753,-108.1697 307.1753,-108.1697 307.1753,-108.1697 307.5228,-113.1576 302.6861,-108.4825 307.8703,-118.1455 307.8703,-118.1455"/>
</g>
<!-- RailwayStation -->
<g id="node6" class="node">
<title>RailwayStation</title>
<ellipse fill="none" stroke="#000000" cx="224.7202" cy="-162" rx="64.7718" ry="18"/>
<text text-anchor="middle" x="224.7202" y="-157.8" font-family="Times,serif" font-size="14.00" fill="#000000">RailwayStation</text>
</g>
<!-- Route&#45;&gt;RailwayStation -->
<g id="edge4" class="edge">
<title>Route&#45;&gt;RailwayStation</title>
<path fill="none" stroke="#571ecd" d="M224.7202,-223.89C224.7202,-213.1899 224.7202,-201.0476 224.7202,-190.3694"/>
<polygon fill="#571ecd" stroke="#571ecd" points="224.7203,-224.186 220.2202,-234.1859 224.7203,-229.186 224.7202,-234.186 224.7202,-234.186 224.7202,-234.186 224.7203,-229.186 229.2202,-234.186 224.7203,-224.186 224.7203,-224.186"/>
<polygon fill="#571ecd" stroke="#571ecd" points="224.7203,-190.2868 229.2202,-180.2867 224.7203,-185.2868 224.7202,-180.2868 224.7202,-180.2868 224.7202,-180.2868 224.7203,-185.2868 220.2202,-180.2868 224.7203,-190.2868 224.7203,-190.2868"/>
</g>
<!-- RailwayStation&#45;&gt;Train -->
<g id="edge7" class="edge">
<title>RailwayStation&#45;&gt;Train</title>
<path fill="none" stroke="#9a5ee7" d="M199.1114,-139.2366C189.133,-130.3669 177.7535,-120.2518 167.915,-111.5065"/>
<ellipse fill="none" stroke="#9a5ee7" cx="202.1227" cy="-141.9133" rx="4" ry="4"/>
<polygon fill="#9a5ee7" stroke="#9a5ee7" points="167.8855,-111.4803 163.401,-101.4732 164.1484,-108.1584 160.4114,-104.8366 160.4114,-104.8366 160.4114,-104.8366 164.1484,-108.1584 157.4217,-108.2 167.8855,-111.4803 167.8855,-111.4803"/>
</g>
<!-- RailwayStation&#45;&gt;RailwayStationsRoute -->
<g id="edge6" class="edge">
<title>RailwayStation&#45;&gt;RailwayStationsRoute</title>
<path fill="none" stroke="#a61fd0" d="M250.1343,-139.1274C258.8491,-131.284 268.6343,-122.4773 277.4873,-114.5096"/>
<ellipse fill="none" stroke="#a61fd0" cx="247.0592" cy="-141.8949" rx="4" ry="4"/>
<polygon fill="#a61fd0" stroke="#a61fd0" points="277.544,-114.4586 287.9874,-111.1137 281.2605,-111.1137 284.977,-107.7689 284.977,-107.7689 284.977,-107.7689 281.2605,-111.1137 281.9667,-104.424 277.544,-114.4586 277.544,-114.4586"/>
</g>
<!-- ApplicationRecord -->
<g id="node7" class="node">
<title>ApplicationRecord</title>
<ellipse fill="none" stroke="#000000" cx="351.7202" cy="-252.5" rx="77.2916" ry="18"/>
<text text-anchor="middle" x="351.7202" y="-248.3" font-family="Times,serif" font-size="14.00" fill="#000000">ApplicationRecord</text>
</g>
<!-- User -->
<g id="node9" class="node">
<title>User</title>
<ellipse fill="none" stroke="#000000" cx="61.7202" cy="-90" rx="27" ry="18"/>
<text text-anchor="middle" x="61.7202" y="-85.8" font-family="Times,serif" font-size="14.00" fill="#000000">User</text>
</g>
<!-- User&#45;&gt;Ticket -->
<g id="edge8" class="edge">
<title>User&#45;&gt;Ticket</title>
<path fill="none" stroke="#5c0de6" d="M61.7202,-63.8144C61.7202,-58.2775 61.7202,-52.4053 61.7202,-46.7785"/>
<ellipse fill="none" stroke="#5c0de6" cx="61.7203" cy="-67.8314" rx="4" ry="4"/>
<polygon fill="#5c0de6" stroke="#5c0de6" points="61.7203,-46.4133 66.2202,-36.4132 61.7203,-41.4133 61.7202,-36.4133 61.7202,-36.4133 61.7202,-36.4133 61.7203,-41.4133 57.2202,-36.4133 61.7203,-46.4133 61.7203,-46.4133"/>
</g>
</g>
</svg>
